<?xml version="1.0" encoding="UTF-8" standalone="no"?>
<svg width="51px" height="51px" viewBox="0 0 51 51" version="1.1" xmlns="http://www.w3.org/2000/svg" xmlns:xlink="http://www.w3.org/1999/xlink">
    <!-- Generator: Sketch 46.2 (44496) - http://www.bohemiancoding.com/sketch -->
    <title>Group 11</title>
    <desc>Created with Sketch.</desc>
    <defs></defs>
    <g id="报表管理" stroke="none" stroke-width="1" fill="none" fill-rule="evenodd">
        <g id="1.1报表管理-工单报表-工单汇总统计" transform="translate(-219.000000, -218.000000)" fill="#4B7AFB">
            <g id="Group-11" transform="translate(220.000000, 219.000000)">
                <path d="M24.5,49.5 C10.6928813,49.5 -0.5,38.3071187 -0.5,24.5 C-0.5,10.6928813 10.6928813,-0.5 24.5,-0.5 C38.3071187,-0.5 49.5,10.6928813 49.5,24.5 C49.5,38.3071187 38.3071187,49.5 24.5,49.5 Z M24.5,48.5 C37.754834,48.5 48.5,37.754834 48.5,24.5 C48.5,11.245166 37.754834,0.5 24.5,0.5 C11.245166,0.5 0.5,11.245166 0.5,24.5 C0.5,37.754834 11.245166,48.5 24.5,48.5 Z" id="Oval" fill-rule="nonzero"></path>
                <path d="M18.9046654,14 L30.3453346,14 C32.5018217,14 34.25,15.7312886 34.25,17.8669412 L34.25,32.1330588 C34.25,34.2687114 32.5018217,36 30.3453346,36 L18.9046654,36 C16.7481783,36 15,34.2687114 15,32.1330588 L15,17.8669412 C15,15.7312886 16.7481783,14 18.9046654,14 Z M18.8357596,15.4785364 C17.5672377,15.4785364 16.5388976,16.4969414 16.5388976,17.7532077 L16.5388976,32.2656107 C16.5388976,33.521877 17.5672377,34.540282 18.8357596,34.540282 L30.4349128,34.540282 C31.7034346,34.540282 32.7317748,33.521877 32.7317748,32.2656107 L32.7317748,17.7532077 C32.7317748,16.4969414 31.7034346,15.4785364 30.4349128,15.4785364 L18.8357596,15.4785364 Z M30.1767378,19.8560958 L30.1767378,19.8575516 L24.9942402,19.8575516 C24.7899387,19.8575516 24.6238518,19.6930474 24.6238518,19.4906926 L24.6238518,18.7569746 C24.6238518,18.5546199 24.7899387,18.3901156 24.9942402,18.3901156 L30.1767378,18.3901156 C30.3810393,18.3901156 30.5471261,18.5546199 30.5471261,18.7569746 L30.5471261,19.4892368 C30.5471261,19.6915916 30.3810393,19.8560958 30.1767378,19.8560958 Z M29.807214,23.5183166 L29.807214,23.5197724 L19.4175211,23.5197724 C19.0079444,23.5197724 18.6749792,23.3552682 18.6749792,23.1529134 L18.6749792,22.4191955 C18.6749792,22.2168407 19.0079444,22.0523365 19.4175211,22.0523365 L29.807214,22.0523365 C30.2167907,22.0523365 30.5497559,22.2168407 30.5497559,22.4191955 L30.5497559,23.1514577 C30.5497559,23.3538124 30.2167907,23.5183166 29.807214,23.5183166 Z M29.807214,27.1805375 L29.807214,27.1819933 L19.4175211,27.1819933 C19.0079444,27.1819933 18.6749792,27.017489 18.6749792,26.8151343 L18.6749792,26.0814163 C18.6749792,25.8790615 19.0079444,25.7145573 19.4175211,25.7145573 L29.807214,25.7145573 C30.2167907,25.7145573 30.5497559,25.8790615 30.5497559,26.0814163 L30.5497559,26.8136785 C30.5497559,27.0160332 30.2167907,27.1805375 29.807214,27.1805375 Z M29.807214,30.8427583 L29.807214,30.8442141 L19.4175211,30.8442141 C19.0079444,30.8442141 18.6749792,30.6797099 18.6749792,30.4773551 L18.6749792,29.7436371 C18.6749792,29.5412824 19.0079444,29.3767781 19.4175211,29.3767781 L29.807214,29.3767781 C30.2167907,29.3767781 30.5497559,29.5412824 30.5497559,29.7436371 L30.5497559,30.4758993 C30.5497559,30.6782541 30.2167907,30.8427583 29.807214,30.8427583 Z" id="工单"></path>
            </g>
        </g>
    </g>
</svg>