<?xml version="1.0" encoding="UTF-8" standalone="no"?>
<svg width="49px" height="49px" viewBox="0 0 49 49" version="1.1" xmlns="http://www.w3.org/2000/svg" xmlns:xlink="http://www.w3.org/1999/xlink">
    <!-- Generator: Sketch 46.2 (44496) - http://www.bohemiancoding.com/sketch -->
    <title>Shape Copy</title>
    <desc>Created with Sketch.</desc>
    <defs></defs>
    <g id="财务管理" stroke="none" stroke-width="1" fill="none" fill-rule="evenodd">
        <g id="财务管理-物业收费（收费信息确认弹窗）" transform="translate(-210.000000, -194.000000)" fill-rule="nonzero" fill="#A5CCFA">
            <g id="Group-3" transform="translate(190.000000, 100.000000)">
                <g id="用户-(3)" transform="translate(20.000000, 94.000000)">
                    <path d="M24.4993043,49.0013914 C10.9659322,49.0013914 0,38.0340678 0,24.5006957 C0,10.970305 10.9659322,0 24.4993043,0 C38.029695,0 49,10.970305 49,24.5006957 C49,38.0340678 38.029695,49.0013914 24.4993043,49.0013914 Z M29.8708133,33.3205685 L30.850225,32.4623037 C30.850225,32.4623037 31.0970903,30.2161665 31.5231419,29.401133 C32.4772111,27.5723016 33.482164,24.5006957 33.482164,24.5006957 C33.482164,24.5006957 34.4617744,23.7889203 34.4617743,22.5416736 C34.4617743,21.296017 33.4821639,20.5796701 33.482164,20.5796701 C33.482164,20.5796701 33.8515676,17.1103366 33.8515676,14.6998211 C33.8515676,9.63639699 30.6723308,6.85945933 24.9569594,6.85945933 C19.2474516,6.85945933 15.0782686,9.21919048 15.0782686,14.6998211 C15.0782686,17.1103366 15.8439091,20.5796701 15.8439091,20.5796701 C15.8439091,20.5796701 14.8613172,21.2959176 14.8613172,22.5416736 C14.8613172,23.7888209 15.8439091,24.5006957 15.8439091,24.5006957 C15.843909,24.5006957 16.9864069,28.0566904 17.8029312,29.401133 C18.2798664,30.1861531 18.4772394,32.4623037 18.4772394,32.4623037 L19.4568499,33.3205685 C19.4568499,33.3205685 19.9204679,38.291269 18.4772394,39.2004174 C17.1732455,40.0214139 11.5999906,41.1055743 10.245113,41.8981474 C10.3272027,41.9834174 16.2865574,47.1215769 24.6711362,47.1215769 C33.056013,47.1215769 39.028685,41.9639385 39.028685,41.8682334 C37.5810837,41.0801325 32.1378208,40.0109787 30.850225,39.2004174 C29.4056052,38.291269 29.8708133,33.3205685 29.8708133,33.3205685 L29.8708133,33.3205685 Z" id="Shape-Copy"></path>
                </g>
            </g>
        </g>
    </g>
</svg>