<?xml version="1.0" encoding="UTF-8" standalone="no"?>
<svg width="49px" height="49px" viewBox="0 0 49 49" version="1.1" xmlns="http://www.w3.org/2000/svg" xmlns:xlink="http://www.w3.org/1999/xlink">
    <!-- Generator: Sketch 46.2 (44496) - http://www.bohemiancoding.com/sketch -->
    <title>Shape Copy</title>
    <desc>Created with Sketch.</desc>
    <defs></defs>
    <g id="财务管理" stroke="none" stroke-width="1" fill="none" fill-rule="evenodd">
        <g id="财务管理-物业收费（流水明细）-" transform="translate(-210.000000, -194.000000)" fill-rule="nonzero" fill="#A5CCFA">
            <g id="Group-3" transform="translate(190.000000, 100.000000)">
                <path d="M44.4993043,143.001391 C30.9659322,143.001391 20,132.034068 20,118.500696 C20,104.970305 30.9659322,94 44.4993043,94 C58.029695,94 69,104.970305 69,118.500696 C69,132.034068 58.029695,143.001391 44.4993043,143.001391 Z M49.8708133,127.320568 L50.850225,126.462304 C50.850225,126.462304 51.0970903,124.216166 51.5231419,123.401133 C52.4772111,121.572302 53.482164,118.500696 53.482164,118.500696 C53.482164,118.500696 54.4617744,117.78892 54.4617743,116.541674 C54.4617743,115.296017 53.4821639,114.57967 53.482164,114.57967 C53.482164,114.57967 53.8515676,111.110337 53.8515676,108.699821 C53.8515676,103.636397 50.6723308,100.859459 44.9569594,100.859459 C39.2474516,100.859459 35.0782686,103.21919 35.0782686,108.699821 C35.0782686,111.110337 35.8439091,114.57967 35.8439091,114.57967 C35.8439091,114.57967 34.8613172,115.295918 34.8613172,116.541674 C34.8613172,117.788821 35.8439091,118.500696 35.8439091,118.500696 C35.843909,118.500696 36.9864069,122.05669 37.8029312,123.401133 C38.2798664,124.186153 38.4772394,126.462304 38.4772394,126.462304 L39.4568499,127.320568 C39.4568499,127.320568 39.9204679,132.291269 38.4772394,133.200417 C37.1732455,134.021414 31.5999906,135.105574 30.245113,135.898147 C30.3272027,135.983417 36.2865574,141.121577 44.6711362,141.121577 C53.056013,141.121577 59.028685,135.963939 59.028685,135.868233 C57.5810837,135.080133 52.1378208,134.010979 50.850225,133.200417 C49.4056052,132.291269 49.8708133,127.320568 49.8708133,127.320568 L49.8708133,127.320568 Z" id="Shape-Copy"></path>
            </g>
        </g>
    </g>
</svg>