<?xml version="1.0" encoding="UTF-8" standalone="no"?>
<svg width="16px" height="16px" viewBox="0 0 16 16" version="1.1" xmlns="http://www.w3.org/2000/svg" xmlns:xlink="http://www.w3.org/1999/xlink">
    <!-- Generator: Sketch 46.2 (44496) - http://www.bohemiancoding.com/sketch -->
    <title>Shape</title>
    <desc>Created with Sketch.</desc>
    <defs></defs>
    <g id="UI-KIT" stroke="none" stroke-width="1" fill="none" fill-rule="evenodd">
        <g id="Navbar_left" transform="translate(-347.000000, -1882.000000)" fill-rule="nonzero" fill="#CED8E3">
            <g id="icon" transform="translate(347.000000, 1367.000000)">
                <g id="集团" transform="translate(0.000000, 515.000000)">
                    <path d="M7.73307526,0 L8.26464919,0 C9.18717465,0.0429689353 10.106109,0.22168913 10.96387,0.569013958 C12.7519431,1.27669475 14.2610825,2.65625184 15.1295457,4.37143597 C15.6816352,5.4466194 15.9739555,6.64910962 16,7.85613318 L16,8.14292462 C15.9746133,9.33433927 15.6900974,10.521185 15.1510391,11.5856307 C14.6262918,12.6341474 13.8652421,13.5625218 12.9443344,14.2877848 C12.0022711,15.0309501 10.8902877,15.5582929 9.71743302,15.8134931 C9.24120139,15.9209244 8.75421418,15.97072 8.26788475,16.0000178 L7.73565305,16.0000178 C7.09796346,15.9661689 6.46123386,15.880231 5.84633539,15.7047819 C4.35675151,15.2923548 2.99671444,14.4316605 1.98110443,13.2675881 C1.26691697,12.4547694 0.721671917,11.4938439 0.388000435,10.464225 C0.144195706,9.71517524 0.0195377906,8.93001882 0,8.14324461 L0,7.85711096 C0.0283200354,6.39648712 0.458009406,4.94532105 1.24544138,3.7135508 C2.08073121,2.39779823 3.30729257,1.33301483 4.73111637,0.698578554 C5.67351741,0.269866965 6.70086078,0.0465422631 7.73307526,0 L7.73307526,0 L7.73307526,0 Z M6.20606912,1.70670411 C5.69890412,2.34341592 5.36816597,3.09831455 5.09929455,3.86165762 C5.47657497,3.9563955 5.8636154,3.99740888 6.24740251,4.05534672 C6.72331415,4.10450234 7.20052356,4.14779126 7.67968854,4.15138238 C7.67935076,2.99122109 7.68002632,1.83105981 7.67935076,0.670258501 C7.07031897,0.798827543 6.58039842,1.22949469 6.20606912,1.70670411 L6.20606912,1.70670411 L6.20606912,1.70670411 Z M8.32032925,4.1513824 C8.96779664,4.13966683 9.61492625,4.08594233 10.2545714,3.98211999 C10.4723494,3.95443996 10.6878519,3.91374658 10.9004032,3.86101763 C10.5862873,2.96778997 10.1813447,2.07845565 9.51695282,1.38835711 C9.19208135,1.04817895 8.78713867,0.76888976 8.32130705,0.670240746 C8.31935147,1.83072202 8.32098702,2.99088333 8.32032925,4.1513824 L8.32032925,4.1513824 L8.32032925,4.1513824 Z M5.57389063,1.05111228 C4.44238715,1.44531717 3.41049266,2.12174458 2.59831399,3.0025989 C3.19239465,3.31639481 3.82910648,3.54850172 4.47916942,3.71516858 C4.81836979,2.69205633 5.29460144,1.68000187 6.06185563,0.905903231 C5.89486878,0.938792148 5.73470859,0.996747765 5.57389063,1.05111228 L5.57389063,1.05111228 L5.57389063,1.05111228 Z M9.93490882,0.901369894 C10.0947312,1.04849894 10.222998,1.22428581 10.3626604,1.38965488 C10.8854343,2.08821566 11.2509992,2.89127432 11.5224839,3.71680414 C12.1722269,3.54754173 12.8069831,3.31445702 13.4033393,3.00489223 C12.4746272,1.99804666 11.2597636,1.25358361 9.93490882,0.901369894 L9.93490882,0.901369894 L9.93490882,0.901369894 Z M2.17187796,3.50325723 C1.25260583,4.69660967 0.707040772,6.17415799 0.648445156,7.68066632 C1.71452635,7.67872855 2.78092753,7.68002632 3.84700872,7.68002632 C3.8678443,6.5511184 4.01237778,5.42382825 4.29655589,4.33074259 C3.55989729,4.13671571 2.84082093,3.86816431 2.17187796,3.50325723 L2.17187796,3.50325723 L2.17187796,3.50325723 Z M11.7034619,4.33072482 C11.98764,5.42382825 12.1321557,6.55110062 12.1523513,7.67968854 C13.2194103,7.67935076 14.2861314,7.67968854 15.3532082,7.67968854 C15.2903815,6.1735002 14.7487097,4.6949741 13.826842,3.50259944 C13.1591969,3.87011985 12.4388227,4.13509793 11.7034619,4.33072482 L11.7034619,4.33072482 L11.7034619,4.33072482 Z M4.48633388,7.67709298 C5.55111728,7.68263966 6.61524292,7.67807076 7.67968854,7.67968854 L7.67968854,4.79132977 C6.75325195,4.77408531 5.82585536,4.67772964 4.91991659,4.47948943 C4.64453849,5.52213947 4.51008502,6.59961622 4.48633388,7.67709298 L4.48633388,7.67709298 L4.48633388,7.67709298 Z M8.32032925,4.79100976 C8.32032925,5.75422861 8.32032925,6.71678968 8.32066703,7.67968854 C9.38511267,7.67775077 10.4492383,7.68326189 11.5137017,7.6767552 C11.4896128,6.59929621 11.3551593,5.52180169 11.0800834,4.47883164 C10.1744824,4.67838743 9.24674805,4.7737653 8.32032925,4.79100976 L8.32032925,4.79100976 L8.32032925,4.79100976 Z M0.647787383,8.31999147 C0.70768079,9.82649982 1.25226805,11.3040481 2.17221574,12.4974006 C2.84050092,12.1315157 3.56055506,11.8642621 4.29655589,11.6692752 C4.01205779,10.5761895 3.86882208,9.4485794 3.84636872,8.31999147 C2.78028753,8.32064926 1.71418856,8.32064926 0.647787383,8.31999147 L0.647787383,8.31999147 L0.647787383,8.31999147 Z M4.48699165,8.32258703 C4.51076056,9.40006379 4.64357849,10.4791761 4.92155214,11.5218084 C5.82617537,11.319977 6.75358973,11.2268925 7.67936855,11.2089902 C7.67970633,10.2460914 7.67970633,9.28287253 7.67970633,8.32031146 C6.6152429,8.32194703 5.55111728,8.31737813 4.48699165,8.32258703 L4.48699165,8.32258703 L4.48699165,8.32258703 Z M8.32032925,8.32031148 L8.32032925,11.2086702 C9.24740584,11.2255947 10.1748202,11.3229282 11.0807412,11.5201728 C11.352226,10.475585 11.4954617,9.39777046 11.5097728,8.31867592 C10.446625,8.32258703 9.38347709,8.31935147 8.32032925,8.32031148 L8.32032925,8.32031148 L8.32032925,8.32031148 Z M12.1523513,8.32031148 C12.1334713,9.4485794 11.9869822,10.5761895 11.7037997,11.6692752 C12.4394627,11.8632843 13.1591968,12.1305379 13.827162,12.4970628 C14.7490297,11.3050081 15.2903814,9.82648205 15.3532082,8.32063149 C14.2861492,8.31999147 13.2190902,8.32064926 12.1523513,8.32031148 L12.1523513,8.32031148 L12.1523513,8.32031148 Z M5.09993455,12.1367246 C5.41145491,13.0322278 5.81966868,13.9222199 6.48438054,14.6126563 C6.80859423,14.9524789 7.21355468,15.231128 7.67936853,15.3291193 C7.68036409,14.1692958 7.67936853,13.0091345 7.67970631,11.8489732 C6.81380313,11.8658976 5.94727771,11.9541111 5.09993455,12.1367246 L5.09993455,12.1367246 L5.09993455,12.1367246 Z M8.32032925,11.8483154 C8.32066703,13.0087967 8.31967148,14.1692958 8.32098702,15.3294393 C8.92873882,15.2011902 9.41798379,14.7718209 9.79201087,14.2955892 C10.3001537,13.6578996 10.6331496,12.901721 10.9004032,12.1367246 C10.511745,12.0429823 10.1146068,11.9977378 9.72006413,11.9407777 C9.2542503,11.8951777 8.78841866,11.8512487 8.32032925,11.8483154 L8.32032925,11.8483154 L8.32032925,11.8483154 Z M2.59733621,12.9954633 C3.52572835,14.0013133 4.73993415,14.7467542 6.06446896,15.0976701 C5.29721478,14.3216337 4.8180498,13.3098993 4.47918721,12.2848315 C3.82779092,12.4489027 3.19435021,12.6878363 2.59733621,12.9954633 L2.59733621,12.9954633 L2.59733621,12.9954633 Z M11.5218261,12.2838714 C11.181008,13.309917 10.7028208,14.3229315 9.93394882,15.0999457 C11.2575058,14.7461142 12.4726894,14.0035889 13.4017393,12.9970811 C12.8079609,12.6829652 12.1712313,12.4528139 11.5218261,12.2838714 L11.5218261,12.2838714 L11.5218261,12.2838714 Z" id="Shape"></path>
                </g>
            </g>
        </g>
    </g>
</svg>