<?xml version="1.0" encoding="UTF-8" standalone="no"?>
<svg width="14px" height="13px" viewBox="0 0 14 13" version="1.1" xmlns="http://www.w3.org/2000/svg" xmlns:xlink="http://www.w3.org/1999/xlink">
    <!-- Generator: Sketch 46.2 (44496) - http://www.bohemiancoding.com/sketch -->
    <title>Star</title>
    <desc>Created with Sketch.</desc>
    <defs></defs>
    <g id="工单管理" stroke="none" stroke-width="1" fill="none" fill-rule="evenodd">
        <g id="完成工单" transform="translate(-823.000000, -497.000000)" fill-rule="nonzero" fill="#FF4B52">
            <g id="右侧操作区" transform="translate(190.000000, 101.000000)">
                <g id="右展示区">
                    <g id="操作记录" transform="translate(20.000000, 369.000000)">
                        <g id="Group-2" transform="translate(537.000000, 23.000000)">
                            <g id="Star" transform="translate(75.000000, 3.000000)">
                                <path d="M8,12.0958557 C7.76082357,12.1212769 7.58423403,12.1723124 7.47023139,12.2489622 L5.11115965,13.5059088 L5.11115965,13.5059088 C4.62374452,13.7656104 4.01808672,13.5810121 3.7583851,13.093597 C3.65318802,12.8961602 3.61723329,12.669151 3.65627034,12.4488698 L4.13447594,9.75041545 L4.13447594,9.75041545 C4.19259123,9.42247817 4.08362991,9.08712972 3.84385696,8.85598219 L1.87086882,6.95396894 L1.87086882,6.95396894 C1.47325834,6.57066182 1.46166318,5.93760302 1.8449703,5.53999254 C2.00023613,5.37893287 2.20502411,5.27458818 2.42658709,5.24364399 L5.13953033,4.86474569 L5.13953033,4.86474569 C5.47004474,4.818585 5.75575006,4.61059142 5.90121356,4.31024004 L7.08791516,1.85995204 C7.24898919,1.61912622 7.40319162,1.46739153 7.55052246,1.40474797 C7.77151871,1.31078263 8,1.28583732 8,1.30676898 C8,1.32770064 8.00392151,11.5709534 8,12.0958557 Z M7.05953722,11.3346968 C7.64739377,11.0214786 8.35260623,11.0214786 8.94046278,11.3346968 L11.3590717,12.6233656 L10.8808661,9.92491124 C10.7646356,9.26903668 10.9825582,8.59833978 11.4621041,8.13604473 L13.4350922,6.23403148 L10.720936,5.85496377 C10.061245,5.76282923 9.49071612,5.34831574 9.19923523,4.74938347 L8,2.28520583 L6.80076477,4.74938347 C6.50928388,5.34831574 5.93875502,5.76282923 5.27906403,5.85496377 L2.56490776,6.23403148 L4.5378959,8.13604473 C5.0174418,8.59833978 5.23536443,9.26903668 5.11913386,9.92491124 L4.64092826,12.6233656 L7.05953722,11.3346968 Z M7.52976861,12.21724 L5.11115965,13.5059088 C4.62374452,13.7656104 4.01808672,13.5810121 3.7583851,13.093597 C3.65318802,12.8961602 3.61723329,12.669151 3.65627034,12.4488698 L4.13447594,9.75041545 C4.19259123,9.42247817 4.08362991,9.08712972 3.84385696,8.85598219 L1.87086882,6.95396894 C1.47325834,6.57066182 1.46166318,5.93760302 1.8449703,5.53999254 C2.00023613,5.37893287 2.20502411,5.27458818 2.42658709,5.24364399 L5.14074336,4.86457627 C5.47058885,4.818509 5.75585328,4.61125226 5.90159373,4.31178612 L7.10082896,1.84760848 C7.3425073,1.35101003 7.94099889,1.14435644 8.43759734,1.38603478 C8.63875398,1.48393118 8.80127464,1.64645185 8.89917104,1.84760848 L10.0984063,4.31178612 C10.2441467,4.61125226 10.5294111,4.818509 10.8592566,4.86457627 L13.5734129,5.24364399 C14.1203888,5.32003638 14.5018721,5.82537624 14.4254797,6.37235215 C14.3945355,6.59391513 14.2901909,6.79870312 14.1291312,6.95396894 L12.156143,8.85598219 C11.9163701,9.08712972 11.8074088,9.42247817 11.8655241,9.75041545 L12.3437297,12.4488698 C12.440101,12.9926814 12.0773791,13.5116522 11.5335675,13.6080235 C11.3132863,13.6470606 11.0862771,13.6111058 10.8888403,13.5059088 L8.47023139,12.21724 C8.17630311,12.0606309 7.82369689,12.0606309 7.52976861,12.21724 Z"></path>
                            </g>
                        </g>
                    </g>
                </g>
            </g>
        </g>
    </g>
</svg>