<?xml version="1.0" encoding="UTF-8" standalone="no"?>
<svg width="990px" height="34px" viewBox="0 0 990 34" version="1.1" xmlns="http://www.w3.org/2000/svg" xmlns:xlink="http://www.w3.org/1999/xlink">
    <!-- Generator: Sketch 46.2 (44496) - http://www.bohemiancoding.com/sketch -->
    <title>卡片式标签页基本样式 Tabs+基本样式</title>
    <desc>Created with Sketch.</desc>
    <defs>
        <path d="M0,4.0042577 C0,1.79276724 1.79771022,0 4.00984669,0 L83.9901533,0 C86.2047305,0 88,1.78902751 88,4.0042577 L88,32 L0,32 L0,4.0042577 Z" id="path-1"></path>
    </defs>
    <g id="财务管理" stroke="none" stroke-width="1" fill="none" fill-rule="evenodd">
        <g id="财务管理-物业收费（流水明细）-" transform="translate(-190.000000, -287.000000)">
            <g id="卡片式标签页基本样式-Tabs-基本样式" transform="translate(190.000000, 287.000000)">
                <g id="卡片式标签页基本样式-Tabs+基本样式">
                    <g id="页签/未选" transform="translate(92.000000, 0.000000)">
                        <g id="Group">
                            <path d="M0,4.0042577 C0,1.79276724 1.79771022,0 4.00984669,0 L83.9901533,0 C86.2047305,0 88,1.78902751 88,4.0042577 L88,32 L0,32 L0,4.0042577 Z" id="Mask" fill="#F7F7F7"></path>
                            <text id="可选页签--" font-family="MicrosoftYaHei, Microsoft YaHei" font-size="14" font-weight="normal" line-spacing="21" fill="#333333">
                                <tspan x="16" y="22">缴费历史</tspan>
                            </text>
                        </g>
                    </g>
                    <g id="页签/未选">
                        <g id="Group">
                            <path d="M0,4.0042577 C0,1.79276724 1.79771022,0 4.00984669,0 L83.9901533,0 C86.2047305,0 88,1.78902751 88,4.0042577 L88,32 L0,32 L0,4.0042577 Z" id="Mask" fill="#F7F7F7"></path>
                            <text id="可选页签--" font-family="MicrosoftYaHei, Microsoft YaHei" font-size="14" font-weight="normal" line-spacing="21" fill="#333333">
                                <tspan x="23" y="22">收费台</tspan>
                            </text>
                        </g>
                    </g>
                    <g id="页签/选中" transform="translate(184.000000, 0.000000)">
                        <g id="Group-6">
                            <mask id="mask-2" fill="white">
                                <use xlink:href="#path-1"></use>
                            </mask>
                            <g id="Mask">
                                <use fill="#FFFFFF" fill-rule="evenodd" xlink:href="#path-1"></use>
                                <path stroke="#DDDDDD" stroke-width="1" d="M0.5,31.5 L87.5,31.5 L87.5,4.0042577 C87.5,2.06669009 85.9301104,0.5 83.9901533,0.5 L4.00984669,0.5 C2.07280668,0.5 0.5,2.06995441 0.5,4.0042577 L0.5,31.5 Z"></path>
                            </g>
                            <text id="选中页签" fill="#4B7AFB" font-family="MicrosoftYaHei, Microsoft YaHei" font-size="14" font-weight="normal" line-spacing="21">
                                <tspan x="16" y="22">流水明细</tspan>
                            </text>
                        </g>
                    </g>
                    <path d="M0,32 L990,32" id="Path-638" stroke="#DDDDDD"></path>
                    <rect id="Rectangle-1676" fill="#FFFFFF" x="185" y="30" width="86" height="4"></rect>
                </g>
            </g>
        </g>
    </g>
</svg>