<?xml version="1.0" encoding="UTF-8" standalone="no"?>
<svg width="51px" height="51px" viewBox="0 0 51 51" version="1.1" xmlns="http://www.w3.org/2000/svg" xmlns:xlink="http://www.w3.org/1999/xlink">
    <!-- Generator: Sketch 46.2 (44496) - http://www.bohemiancoding.com/sketch -->
    <title>回访率</title>
    <desc>Created with Sketch.</desc>
    <defs></defs>
    <g id="报表管理" stroke="none" stroke-width="1" fill="none" fill-rule="evenodd">
        <g id="1.2报表管理-工单报表-工单受理能力统计（按周统计）" transform="translate(-976.000000, -218.000000)" fill-rule="nonzero" fill="#4B7AFB">
            <g id="Group-2-Copy-6" transform="translate(947.000000, 190.000000)">
                <g id="回访率" transform="translate(30.000000, 29.000000)">
                    <path d="M24.5,49.5 C10.6928813,49.5 -0.5,38.3071187 -0.5,24.5 C-0.5,10.6928813 10.6928813,-0.5 24.5,-0.5 C38.3071187,-0.5 49.5,10.6928813 49.5,24.5 C49.5,38.3071187 38.3071187,49.5 24.5,49.5 Z M24.5,48.5 C37.754834,48.5 48.5,37.754834 48.5,24.5 C48.5,11.245166 37.754834,0.5 24.5,0.5 C11.245166,0.5 0.5,11.245166 0.5,24.5 C0.5,37.754834 11.245166,48.5 24.5,48.5 Z" id="Oval"></path>
                    <path d="M31.2175592,27.1032654 C28.5755218,27.1032654 26.4351184,29.319452 26.4351184,32.0516327 C26.4351184,34.7853355 28.5769928,37 31.2175592,37 C33.8581256,37 36,34.7853355 36,32.0516327 C36,29.319452 33.8581256,27.1032654 31.2175592,27.1032654 L31.2175592,27.1032654 Z M33.8209104,33.5069357 C34.0352903,33.7731046 33.9376145,34.1757284 33.8636223,34.2539542 C33.789624,34.3333874 33.7949722,34.3715067 33.440235,34.7045448 C33.0832188,35.0403183 32.369162,34.8107093 32.0449516,34.7045448 C31.7207229,34.5979842 30.8396048,34.0149191 30.0248458,33.2136015 C29.1994087,32.401682 28.7726119,31.390054 28.5978931,30.8403921 C28.4235753,30.2891455 28.5326827,30.0901979 28.5978931,29.9038206 C28.6631339,29.7174684 28.7824938,29.5594133 29.1361066,29.3494236 C29.4889234,29.1390818 29.6167066,29.2991302 29.7074845,29.3494236 C29.79791,29.3990002 30.1930496,29.7567762 30.3300036,30.0949267 C30.4661797,30.4330457 30.4013339,30.6504681 30.2960432,30.7530923 C30.1911717,30.8557165 30.1164077,30.9496944 30.0294281,31.0133754 C29.9424607,31.0758995 29.9241617,31.1667206 29.9371247,31.3420684 C29.9493403,31.5178249 30.5623118,32.2035267 30.6832093,32.3301406 C30.8037543,32.4571129 31.6017094,33.3111259 31.8786317,33.3767752 C32.1559429,33.4412549 32.2562563,33.3166219 32.286388,33.28281 C32.3165318,33.2493942 32.425621,33.0956529 32.5492047,32.9887087 C32.6735602,32.8825316 33.0054099,32.9116462 33.0873939,32.9714097 C33.1694083,33.0311984 33.6065366,33.239572 33.8209104,33.506942 L33.8209104,33.5069357 Z M18.0866258,29.1038837 C17.8821474,29.1038837 17.7159168,29.2758818 17.7159168,29.4874545 L17.7159168,30.254596 C17.7159168,30.4661688 17.8821474,30.6381668 18.0866258,30.6381668 L25.5493518,30.6381668 C25.6773347,30.0947749 25.8744578,29.580303 26.1333657,29.1054059 L18.0866258,29.1054059 L18.0866258,29.1038837 Z M25.8656313,34.4693082 L17.829189,34.4693082 C16.5331784,34.4693082 15.4828362,33.3657811 15.4828362,32.0050182 L15.4828362,16.998573 C15.4828362,15.6378101 16.5346495,14.5342831 17.829189,14.5342831 L29.4388546,14.5342831 C30.7348651,14.5342831 31.7852074,15.6378101 31.7852074,16.998573 L31.7852074,26.0459724 C32.3015521,26.0962019 32.798773,26.2164483 33.2665725,26.3975789 L33.2665725,16.8341856 C33.2665725,14.7519443 31.5233574,13 29.5609532,13 L17.7056193,13 C15.7020252,13 14,14.7397674 14,16.8341856 L14,32.1678836 C14,34.1785859 15.740273,36.0020691 17.7056193,36.0020691 L26.7968171,36.0020691 C26.4158106,35.5454372 26.1010022,35.0294432 25.8656313,34.4693082 L25.8656313,34.4693082 Z M17.7291564,21.8190834 L17.7291564,22.5862249 C17.7291564,22.7977977 17.895387,22.9697957 18.0998654,22.9697957 L29.2152523,22.9697957 C29.4197307,22.9697957 29.5859613,22.7977977 29.5859613,22.5862249 L29.5859613,21.8190834 C29.5859613,21.6075106 29.4197307,21.4355126 29.2152523,21.4355126 L18.0998654,21.4355126 C17.895387,21.4355126 17.7291564,21.6075106 17.7291564,21.8190834 L17.7291564,21.8190834 Z M29.1887731,19.1356102 C29.3932515,19.1356102 29.5594821,18.9636121 29.5594821,18.7520394 L29.5594821,17.98642 C29.5594821,17.7748472 29.3932515,17.6028492 29.1887731,17.6028492 L24.0017887,17.6028492 C23.7973103,17.6028492 23.6310796,17.7748472 23.6310796,17.98642 L23.6310796,18.7535615 C23.6310796,18.9651343 23.7973103,19.1371323 24.0017887,19.1371323 L29.1887731,19.1371323 L29.1887731,19.1356102 Z M17.7159168,26.4204105 C17.7159168,26.6319833 17.8821474,26.8039813 18.0866258,26.8039813 L28.3487935,26.8039813 C28.7327421,26.5787095 29.1416989,26.3975789 29.5727217,26.2666778 L29.5727217,25.653269 C29.5727217,25.4416962 29.4064911,25.2696982 29.2020127,25.2696982 L18.0866258,25.2696982 C17.8821474,25.2696982 17.7159168,25.4416962 17.7159168,25.653269 L17.7159168,26.4204105 L17.7159168,26.4204105 Z"></path>
                </g>
            </g>
        </g>
    </g>
</svg>