<?xml version="1.0" encoding="UTF-8" standalone="no"?>
<svg width="16px" height="16px" viewBox="0 0 16 16" version="1.1" xmlns="http://www.w3.org/2000/svg" xmlns:xlink="http://www.w3.org/1999/xlink">
    <!-- Generator: Sketch 46.2 (44496) - http://www.bohemiancoding.com/sketch -->
    <title>日志</title>
    <desc>Created with Sketch.</desc>
    <defs></defs>
    <g id="UI-KIT" stroke="none" stroke-width="1" fill="none" fill-rule="evenodd">
        <g id="Navbar_left" transform="translate(-347.000000, -1844.000000)" fill-rule="nonzero" fill="#C7D2DF">
            <g id="icon" transform="translate(347.000000, 1367.000000)">
                <g id="日志" transform="translate(0.000000, 477.000000)">
                    <path d="M3.2147027,4.57456647 C3.2147027,4.89188182 2.95013884,5.14913295 2.6237965,5.14913295 L0.5909062,5.14913295 C0.264563858,5.14913295 0,4.89189981 0,4.57456647 C0,4.25725112 0.264563858,4 0.5909062,4 L2.62381346,4 C2.9501558,4 3.2147027,4.25723314 3.2147027,4.57456647 Z M3.2147027,10.7765575 C3.2147027,11.0938728 2.95013884,11.351124 2.6237965,11.351124 L0.5909062,11.351124 C0.264563858,11.351124 0,11.0938908 0,10.7765575 C0,10.4592421 0.264563858,10.201991 0.5909062,10.201991 L2.62381346,10.201991 C2.9501558,10.201991 3.2147027,10.4592241 3.2147027,10.7765575 Z M13.9952602,9.7327219 C13.024797,9.7327219 12.2352941,8.89547335 12.2352941,7.86636095 C12.2352941,6.83724855 13.024814,6 13.9952602,6 C14.9657064,6 15.7552263,6.83724855 15.7552263,7.86636095 C15.7552263,8.89547335 14.9657064,9.7327219 13.9952602,9.7327219 Z M13.9952941,7 C13.5437814,7 13.1764706,7.39028957 13.1764706,7.87 C13.1764706,8.34971044 13.543802,8.74000001 13.9952941,8.74000001 C14.4467863,8.74000001 14.8141177,8.34971044 14.8141177,7.87 C14.8141177,7.39028957 14.4467863,7 13.9952941,7 Z M10.693257,4.55206166 C10.693257,4.82820048 10.4510779,5.05206166 10.1523434,5.05206166 L5.32122523,5.05206166 C5.02249073,5.05206166 4.78031161,4.82820048 4.78031161,4.55206166 C4.78031161,4.27592284 5.02249073,4.05206166 5.32122523,4.05206166 L10.1523604,4.05206166 C10.4510949,4.05206166 10.693257,4.27592284 10.693257,4.55206166 L10.693257,4.55206166 Z M10.693257,7.62278227 C10.693257,7.8989211 10.4510779,8.12278227 10.1523434,8.12278227 L5.32122523,8.12278227 C5.02249073,8.12278227 4.78031161,7.8989211 4.78031161,7.62278227 C4.78031161,7.34664345 5.02249073,7.12278227 5.32122523,7.12278227 L10.1523604,7.12278227 C10.4510949,7.12279795 10.693257,7.34664345 10.693257,7.62278227 L10.693257,7.62278227 Z M10.693257,10.6852306 C10.693257,10.9613694 10.4510779,11.1852306 10.1523434,11.1852306 L5.32122523,11.1852306 C5.02249073,11.1852306 4.78031161,10.9613694 4.78031161,10.6852306 C4.78031161,10.4090917 5.02249073,10.1852306 5.32122523,10.1852306 L10.1523604,10.1852306 C10.4510949,10.1852462 10.693257,10.4090917 10.693257,10.6852306 L10.693257,10.6852306 Z" id="Shape"></path>
                    <path d="M2.82572614,3.26767373 L2.82572614,1.94635067 C2.82572614,1.50775594 3.16220944,0.98149844 3.57580139,0.98149844 L12.4229718,0.98149844 C12.8365807,0.98149844 13.173047,1.3383231 13.173047,1.77691784 L13.173047,5.72915607 L14.1006876,5.72915607 L14.1006876,1.94635067 C14.1006876,0.873125241 13.2773193,0 12.2652918,0 L3.71774881,0 C2.70570429,0 1.88235294,0.873125241 1.88235294,1.94635067 L1.88235294,3.26767373 L2.82572614,3.26767373 Z M13.2020349,9.77732306 L13.2020349,13.1726772 C13.2020349,13.5878574 12.7481952,13.9297389 12.3651986,13.9650834 C12.3435825,13.9670782 12.3380708,13.9680966 12.315975,13.9680966 L3.71776577,13.9680966 C3.30417382,13.9680966 2.96769051,13.6112719 2.96769051,13.1726772 L2.96769051,12.1481516 L1.8823699,12.1481516 L1.8823699,13.1726772 C1.8823699,14.2459026 2.70572125,15.1190279 3.71776577,15.1190279 L12.299611,15.1190279 C13.3116555,15.1190279 14.1350068,14.2458846 14.1350068,13.1726772 L14.1350068,9.77732306 L13.2020349,9.77732306 Z M1.88235294,5.96502505 L2.96767356,5.96502505 L2.96767356,9.45078227 L1.88235294,9.45078227 L1.88235294,5.96502505 Z" id="Shape"></path>
                </g>
            </g>
        </g>
    </g>
</svg>