<?xml version="1.0" encoding="UTF-8" standalone="no"?>
<svg width="51px" height="51px" viewBox="0 0 51 51" version="1.1" xmlns="http://www.w3.org/2000/svg" xmlns:xlink="http://www.w3.org/1999/xlink">
    <!-- Generator: Sketch 46.2 (44496) - http://www.bohemiancoding.com/sketch -->
    <title>满意度</title>
    <desc>Created with Sketch.</desc>
    <defs></defs>
    <g id="报表管理" stroke="none" stroke-width="1" fill="none" fill-rule="evenodd">
        <g id="1.4报表管理-工单报表-工单满意度统计" transform="translate(-219.000000, -218.000000)" fill-rule="nonzero" fill="#4B7AFB">
            <g id="Group-2" transform="translate(190.000000, 190.000000)">
                <g id="满意度" transform="translate(30.000000, 29.000000)">
                    <path d="M24.5,49.5 C10.6928813,49.5 -0.5,38.3071187 -0.5,24.5 C-0.5,10.6928813 10.6928813,-0.5 24.5,-0.5 C38.3071187,-0.5 49.5,10.6928813 49.5,24.5 C49.5,38.3071187 38.3071187,49.5 24.5,49.5 Z M24.5,48.5 C37.754834,48.5 48.5,37.754834 48.5,24.5 C48.5,11.245166 37.754834,0.5 24.5,0.5 C11.245166,0.5 0.5,11.245166 0.5,24.5 C0.5,37.754834 11.245166,48.5 24.5,48.5 Z" id="Oval"></path>
                    <path d="M28.773672,31.4107268 C25.3414011,31.4107268 22.5590752,28.540578 22.5590752,25.000025 C22.5590752,21.4594219 25.3414011,18.5884977 28.773672,18.5884978 C32.2059428,18.5884978 34.9882687,21.459422 34.9882687,25.000025 C34.9882687,28.540578 32.2059428,31.4107268 28.773672,31.4107268 Z M28.773672,19.9625001 C26.0768722,19.9625001 23.8902705,22.2181012 23.8902705,25 C23.8902705,27.7818738 26.0768722,30.0366995 28.773672,30.0366995 C31.4704718,30.0366995 33.6570734,27.7818738 33.6570734,25 C33.6570734,22.2181012 31.4704718,19.9625001 28.773672,19.9625001 Z M30.9931067,24.0837316 C30.747974,24.0837316 30.549375,24.289348 30.549375,24.542241 L29.6611597,24.542241 C29.6611597,23.7835368 30.2576357,23.1682387 30.9931067,23.1682387 C31.728602,23.1682387 32.325078,23.7835618 32.325078,24.542241 L31.4368385,24.542241 C31.4368385,24.289348 31.238288,24.0837316 30.9931067,24.0837316 L30.9931067,24.0837316 Z M26.554213,24.0837316 C26.3090559,24.0837316 26.1097052,24.289348 26.1097053,24.542241 L25.222266,24.542241 C25.222266,23.7835368 25.818742,23.1682387 26.554213,23.1682387 C27.2897082,23.1682387 27.8854325,23.7835618 27.8854325,24.542241 L26.997969,24.542241 C26.997969,24.289348 26.7993942,24.0837316 26.554213,24.0837316 Z M28.773672,27.2894702 C29.263986,27.2894702 29.6611597,26.8798135 29.6611597,26.3740023 L30.549375,26.3740023 C30.549375,27.3855996 29.7543243,28.2049632 28.773672,28.2049632 C27.7929955,28.2049632 26.997969,27.3855746 26.997969,26.3740023 L27.8854325,26.3740023 C27.8854325,26.8798135 28.283358,27.2894702 28.773672,27.2894702 Z M22.1145675,32.7847041 L17.6581175,32.7847041 C17.2716618,32.7847041 17.2785485,32.3269702 17.6451443,32.3269702 L22.1145918,32.3269702 C22.5262179,32.3269702 22.5315769,32.7847041 22.1145675,32.7847041 Z M21.2270797,28.2049632 L17.6756495,28.2049632 C17.4304925,28.2049632 17.2319177,28.0001223 17.2319177,27.7472292 C17.2319177,27.4943111 17.4304925,27.2894703 17.6756495,27.2894702 L21.2270797,27.2894702 C21.472261,27.2894702 21.6708357,27.4943111 21.6708358,27.7472292 C21.6708358,28.0001223 21.472261,28.2049632 21.2270797,28.2049632 L21.2270797,28.2049632 Z M21.2270797,21.7942614 L17.6756495,21.7942614 C17.4304925,21.7942614 17.2319177,21.5894205 17.2319177,21.3365274 C17.2319177,21.0836093 17.4304925,20.8787685 17.6756495,20.8787685 L21.2270797,20.8787685 C21.472261,20.8787685 21.6708357,21.0836093 21.6708358,21.3365274 C21.6708358,21.5893955 21.472261,21.7942614 21.2270797,21.7942614 L21.2270797,21.7942614 Z M21.2270797,25 L17.6756495,25 C17.4304925,25 17.2319177,24.7951591 17.2319177,24.542241 C17.2319177,24.289348 17.4304925,24.0837316 17.6756495,24.0837316 L21.2270797,24.0837316 C21.472261,24.0837316 21.6708357,24.289348 21.6708358,24.542241 C21.6708358,24.7951591 21.472261,25 21.2270797,25 L21.2270797,25 Z M23.0027827,32.5554494 C23.0027827,32.4293781 23.1020823,32.3269702 23.2242727,32.3269702 C23.3472635,32.3269702 23.4465387,32.4293781 23.4465387,32.5554494 C23.4466161,32.6162803 23.4232229,32.6746423 23.3815225,32.717654 C23.3398221,32.7606656 23.2832428,32.7847906 23.2242727,32.7847041 C23.1020822,32.7847041 23.0027827,32.6822962 23.0027827,32.5554494 L23.0027827,32.5554494 Z M31.4368385,17.2152959 C31.4368385,16.2036986 30.6417878,15.3835096 29.6611597,15.3835096 L18.1194055,15.3835096 C17.1387532,15.3835096 16.3436783,16.2036986 16.3436783,17.2152959 L16.3436783,32.7847041 C16.3436783,33.7963014 17.1387532,34.6164904 18.1194055,34.6164904 L29.6611597,34.6164904 C30.641812,34.6164904 31.4368385,33.7963014 31.4368385,32.7847041 L31.4368385,32.2765416 C31.9050132,32.0937382 32.3510486,31.8660594 32.768834,31.5958565 L32.768834,33.2424381 C32.768834,34.7598716 31.5766095,35.9904678 30.1056432,35.9904677 L17.6756495,35.9904677 C16.2046832,35.9904677 15.011707,34.7598715 15.011707,33.2424381 L15.011707,16.7567364 C15.011707,15.239353 16.2046832,14.0095322 17.6756495,14.0095323 L30.1056432,14.0095323 C31.5766095,14.0095323 32.768834,15.239353 32.768834,16.7567364 L32.768834,18.4041184 C32.3510486,18.1338656 31.9050132,17.9062118 31.4368385,17.7234333 L31.4368385,17.2152959 L31.4368385,17.2152959 Z" id="Shape"></path>
                </g>
            </g>
        </g>
    </g>
</svg>