<?xml version="1.0" encoding="UTF-8" standalone="no"?>
<svg width="16px" height="16px" viewBox="0 0 16 16" version="1.1" xmlns="http://www.w3.org/2000/svg" xmlns:xlink="http://www.w3.org/1999/xlink">
    <!-- Generator: Sketch 46.2 (44496) - http://www.bohemiancoding.com/sketch -->
    <title>社区</title>
    <desc>Created with Sketch.</desc>
    <defs></defs>
    <g id="UI-KIT" stroke="none" stroke-width="1" fill="none" fill-rule="evenodd">
        <g id="Navbar_left" transform="translate(-347.000000, -1921.000000)" fill-rule="nonzero" fill="#D4DDE7">
            <g id="icon" transform="translate(347.000000, 1367.000000)">
                <g id="社区" transform="translate(0.000000, 554.000000)">
                    <path d="M11.6730033,8.7734732 C11.6730033,7.50310604 10.663778,6.46626226 9.4181576,6.46626226 C8.92718313,6.46626226 8.43620866,6.63439909 8.0452475,6.94264994 L8.03615538,6.95199088 L8.03615538,6.94264994 L8.00887902,6.96133181 L7.98160266,6.94264994 L7.98160266,6.95199088 L7.97251054,6.94264994 C7.58154939,6.63439909 7.09966704,6.46626226 6.60869256,6.46626226 C5.37216426,6.46626226 4.36293896,7.50310604 4.36293896,8.7734732 C4.36293896,9.32458837 4.55387347,9.84768073 4.91755827,10.2960456 L4.94483463,10.3240684 C5.12667703,10.5015462 7.07239068,12.3510513 7.77248391,12.9862349 C7.91795782,13.117008 8.12707658,13.117008 8.26345838,12.9862349 C8.96355161,12.3510513 10.9183574,10.5015462 11.1001998,10.3240684 L11.1274761,10.2960456 C11.4820688,9.84768073 11.6730033,9.32458837 11.6730033,8.7734732 L11.6730033,8.7734732 Z M10.4910277,9.71690764 L8.19072142,11.8933455 C8.08161598,11.9960958 7.9088657,11.9960958 7.79976027,11.8933455 L5.51763818,9.71690764 C5.30851942,9.45536146 5.18122974,9.10974686 5.18122974,8.7734732 C5.18122974,7.97015279 5.81767814,7.32562828 6.59050832,7.32562828 C7.00874584,7.32562828 7.40879911,7.51244698 7.67247059,7.8393797 L7.78157603,7.97015279 C7.89977358,8.11026682 8.10889234,8.11026682 8.21799778,7.97015279 L8.32710322,7.8393797 C8.59077469,7.51244698 8.99082797,7.32562828 9.40906548,7.32562828 C10.1909878,7.32562828 10.8274362,7.97949373 10.8274362,8.7734732 C10.8274362,9.1190878 10.7092386,9.45536146 10.4910277,9.71690764 L10.4910277,9.71690764 Z" id="Shape"></path>
                    <path d="M15.8735627,8.46522235 L8.2725505,0.133108324 C8.1361687,-0.0163466363 7.89977358,-0.0256875713 7.75429967,0.114426454 L7.73611543,0.133108324 L0.135103219,8.46522235 C0.04418202,8.5586317 -0.0103706992,8.68940479 0.00781354051,8.83885975 C0.0350899001,9.01633751 0.171471698,9.15645154 0.344221976,9.19381528 C0.507880133,9.22183808 0.653354051,9.15645154 0.74427525,9.04436032 L2.00807991,7.652561 L2.00807991,15.6110376 C2.00807991,15.8165382 2.17173807,15.984675 2.37176471,15.984675 L13.6278091,15.984675 C13.8278357,15.984675 13.9914939,15.8165382 13.9914939,15.6110376 L13.9914939,7.67124287 L15.2552986,9.05370125 C15.3462198,9.16579247 15.4916937,9.23117902 15.6553518,9.20315621 C15.8281021,9.16579247 15.9644839,9.02567845 15.9917603,8.84820068 C16.0190366,8.69874572 15.973576,8.5586317 15.8735627,8.46522235 Z M13.164111,6.76517218 C13.164111,6.77451311 13.164111,6.77451311 13.164111,6.76517218 L13.164111,15.125309 L2.85364706,15.125309 L2.85364706,6.74649031 L8.00887902,1.10456556 L13.164111,6.76517218 Z" id="Shape"></path>
                </g>
            </g>
        </g>
    </g>
</svg>