<?xml version="1.0" encoding="UTF-8" standalone="no"?>
<svg width="51px" height="51px" viewBox="0 0 51 51" version="1.1" xmlns="http://www.w3.org/2000/svg" xmlns:xlink="http://www.w3.org/1999/xlink">
    <!-- Generator: Sketch 46.2 (44496) - http://www.bohemiancoding.com/sketch -->
    <title>结单率</title>
    <desc>Created with Sketch.</desc>
    <defs></defs>
    <g id="报表管理" stroke="none" stroke-width="1" fill="none" fill-rule="evenodd">
        <g id="1.2报表管理-工单报表-工单受理能力统计（按周统计）" transform="translate(-471.000000, -218.000000)" fill-rule="nonzero" fill="#4B7AFB">
            <g id="Group-2-Copy-4" transform="translate(442.000000, 190.000000)">
                <g id="结单率" transform="translate(30.000000, 29.000000)">
                    <path d="M24.5,49.5 C10.6928813,49.5 -0.5,38.3071187 -0.5,24.5 C-0.5,10.6928813 10.6928813,-0.5 24.5,-0.5 C38.3071187,-0.5 49.5,10.6928813 49.5,24.5 C49.5,38.3071187 38.3071187,49.5 24.5,49.5 Z M24.5,48.5 C37.754834,48.5 48.5,37.754834 48.5,24.5 C48.5,11.245166 37.754834,0.5 24.5,0.5 C11.245166,0.5 0.5,11.245166 0.5,24.5 C0.5,37.754834 11.245166,48.5 24.5,48.5 Z" id="Oval"></path>
                    <path d="M31.2857143,27.2702703 C33.8886496,27.2702703 36,29.4490593 36,32.1351351 C36,34.8227074 33.8886496,37 31.2857143,37 C28.6827789,37 26.5714286,34.8227074 26.5714286,32.1351351 C26.5714286,29.4490593 28.6813288,27.2702703 31.2857143,27.2702703 Z M33.7400599,29.2162162 L30.4891012,32.4257959 L28.8307786,30.7890781 L27.8285714,31.7790398 L30.4891012,34.4054054 L34.7428571,30.2061386 L33.7400599,29.2162162 Z M18.1313027,29.2162162 C17.9328007,29.2162162 17.7714286,29.3616474 17.7714286,29.5405405 L17.7714286,30.1891892 C17.7714286,30.3680824 17.9328007,30.5135135 18.1313027,30.5135135 L25.3759125,30.5135135 C25.5001548,30.0540541 25.6915165,29.6190476 25.9428571,29.2175032 L18.1313027,29.2175032 L18.1313027,29.2162162 Z M26.0005934,34.1898903 L17.8727429,34.1898903 C16.5619913,34.1898903 15.4997022,33.1007254 15.4997022,31.7576724 L15.4997022,16.9465326 C15.4997022,15.6034796 16.5634791,14.5143147 17.8727429,14.5143147 L29.6144591,14.5143147 C30.9252108,14.5143147 31.9874999,15.6034796 31.9874999,16.9465326 L31.9874999,25.8761822 C32.5097176,25.9257579 33.0125939,26.0444394 33.4857143,26.2232126 L33.4857143,16.7842845 C33.4857143,14.7291431 31.7226715,13 29.7379465,13 L17.7477678,13 C15.7213844,13 14,14.7171247 14,16.7842845 L14,31.9184182 C14,33.9029517 15.7600672,35.7027027 17.7477678,35.7027027 L26.9423707,35.7027027 C26.5570305,35.2520138 26.2386413,34.7427353 26.0005934,34.1898903 L26.0005934,34.1898903 Z M17.7714286,21.7567568 L17.7714286,22.4054054 C17.7714286,22.5842986 17.9388657,22.7297297 18.1448281,22.7297297 L29.3408862,22.7297297 C29.5468486,22.7297297 29.7142857,22.5842986 29.7142857,22.4054054 L29.7142857,21.7567568 C29.7142857,21.5778636 29.5468486,21.4324324 29.3408862,21.4324324 L18.1448281,21.4324324 C17.9388657,21.4324324 17.7714286,21.5778636 17.7714286,21.7567568 L17.7714286,21.7567568 Z M28.7319674,18.8365508 C28.9270897,18.8365508 29.0857143,18.6911197 29.0857143,18.5122265 L29.0857143,17.8648649 C29.0857143,17.6859717 28.9270897,17.5405405 28.7319674,17.5405405 L23.7823183,17.5405405 C23.587196,17.5405405 23.4285714,17.6859717 23.4285714,17.8648649 L23.4285714,18.5135135 C23.4285714,18.6924067 23.587196,18.8378378 23.7823183,18.8378378 L28.7319674,18.8378378 L28.7319674,18.8365508 Z M17.7714286,26.2972973 C17.7714286,26.4761905 17.9388657,26.6216216 18.1448281,26.6216216 L28.4814747,26.6216216 C28.8682099,26.4311454 29.2801347,26.2779923 29.7142857,26.1673102 L29.7142857,25.6486486 C29.7142857,25.4697555 29.5468486,25.3243243 29.3408862,25.3243243 L18.1448281,25.3243243 C17.9388657,25.3243243 17.7714286,25.4697555 17.7714286,25.6486486 L17.7714286,26.2972973 L17.7714286,26.2972973 Z"></path>
                </g>
            </g>
        </g>
    </g>
</svg>